<?xml version="1.0" encoding="UTF-8" standalone="no"?>
<!DOCTYPE svg PUBLIC "-//W3C//DTD SVG 1.1//EN"
 "http://www.w3.org/Graphics/SVG/1.1/DTD/svg11.dtd">
<!-- Generated by graphviz version 2.40.1 (20161225.0304)
 -->
<!-- Title: dependencies Pages: 1 -->
<svg width="1512pt" height="284pt"
 viewBox="0.00 0.00 1512.00 284.00" xmlns="http://www.w3.org/2000/svg" xmlns:xlink="http://www.w3.org/1999/xlink">
<g id="graph0" class="graph" transform="scale(1 1) rotate(0) translate(4 280)">
<title>dependencies</title>
<polygon fill="#ffffff" stroke="transparent" points="-4,4 -4,-280 1508,-280 1508,4 -4,4"/>
<text text-anchor="start" x="731.0091" y="-42.4" font-family="sans-serif" font-weight="bold" font-size="14.00" fill="#000000">Legend</text>
<polygon fill="#ffffb3" stroke="transparent" points="518,-10 518,-30 538,-30 538,-10 518,-10"/>
<text text-anchor="start" x="541.629" y="-15.4" font-family="sans-serif" font-size="14.00" fill="#000000"> &#160;Declarations</text>
<polygon fill="#8dd3c7" stroke="transparent" points="631,-10 631,-30 651,-30 651,-10 631,-10"/>
<text text-anchor="start" x="654.7251" y="-15.4" font-family="sans-serif" font-size="14.00" fill="#000000"> &#160;Module</text>
<polygon fill="#80b1d3" stroke="transparent" points="717,-10 717,-30 737,-30 737,-10 717,-10"/>
<text text-anchor="start" x="740.7812" y="-15.4" font-family="sans-serif" font-size="14.00" fill="#000000"> &#160;Bootstrap</text>
<polygon fill="#fdb462" stroke="transparent" points="814,-10 814,-30 834,-30 834,-10 814,-10"/>
<text text-anchor="start" x="837.6732" y="-15.4" font-family="sans-serif" font-size="14.00" fill="#000000"> &#160;Providers</text>
<polygon fill="#fb8072" stroke="transparent" points="910,-10 910,-30 930,-30 930,-10 910,-10"/>
<text text-anchor="start" x="933.7258" y="-15.4" font-family="sans-serif" font-size="14.00" fill="#000000"> &#160;Exports</text>
<g id="clust1" class="cluster">
<title>cluster_AppModule</title>
<polygon fill="none" stroke="#000000" stroke-dasharray="1,5" points="8,-70 8,-268 1496,-268 1496,-70 8,-70"/>
</g>
<g id="clust2" class="cluster">
<title>cluster_AppModule_declarations</title>
<polygon fill="none" stroke="#000000" points="1366,-78 1366,-130 1488,-130 1488,-78 1366,-78"/>
</g>
<g id="clust6" class="cluster">
<title>cluster_AppModule_bootstrap</title>
<polygon fill="none" stroke="#000000" points="701,-208 701,-260 825,-260 825,-208 701,-208"/>
</g>
<g id="clust7" class="cluster">
<title>cluster_AppModule_providers</title>
<polygon fill="none" stroke="#000000" points="16,-78 16,-130 1358,-130 1358,-78 16,-78"/>
</g>
<!-- AppComponent -->
<g id="node1" class="node">
<title>AppComponent</title>
<polygon fill="#ffffb3" stroke="#000000" points="1479.9399,-122 1374.0601,-122 1374.0601,-86 1479.9399,-86 1479.9399,-122"/>
<text text-anchor="middle" x="1427" y="-99.8" font-family="Times,serif" font-size="14.00" fill="#000000">AppComponent</text>
</g>
<!-- AppModule -->
<g id="node2" class="node">
<title>AppModule</title>
<polygon fill="#8dd3c7" stroke="#000000" points="804.6571,-187 801.6571,-191 780.6571,-191 777.6571,-187 721.3429,-187 721.3429,-151 804.6571,-151 804.6571,-187"/>
<text text-anchor="middle" x="763" y="-164.8" font-family="Times,serif" font-size="14.00" fill="#000000">AppModule</text>
</g>
<!-- AppComponent&#45;&gt;AppModule -->
<g id="edge1" class="edge">
<title>AppComponent&#45;&gt;AppModule</title>
<path fill="none" stroke="#000000" d="M1427,-122.2921C1427,-144.2057 1427,-178 1427,-178 1427,-178 814.7877,-178 814.7877,-178"/>
<polygon fill="#000000" stroke="#000000" points="814.7877,-174.5001 804.7877,-178 814.7877,-181.5001 814.7877,-174.5001"/>
</g>
<!-- AppComponent  -->
<g id="node3" class="node">
<title>AppComponent </title>
<polygon fill="#80b1d3" stroke="#000000" points="817.439,-252 708.561,-252 708.561,-216 817.439,-216 817.439,-252"/>
<text text-anchor="middle" x="763" y="-229.8" font-family="Times,serif" font-size="14.00" fill="#000000">AppComponent </text>
</g>
<!-- AppModule&#45;&gt;AppComponent  -->
<g id="edge2" class="edge">
<title>AppModule&#45;&gt;AppComponent </title>
<path fill="none" stroke="#000000" stroke-dasharray="1,5" d="M763,-187.1061C763,-187.1061 763,-205.991 763,-205.991"/>
<polygon fill="#000000" stroke="#000000" points="759.5001,-205.9909 763,-215.991 766.5001,-205.991 759.5001,-205.9909"/>
</g>
<!-- SingleMinutesRowService -->
<g id="node4" class="node">
<title>SingleMinutesRowService</title>
<ellipse fill="#fdb462" stroke="#000000" cx="1235" cy="-104" rx="114.6237" ry="18"/>
<text text-anchor="middle" x="1235" y="-99.8" font-family="Times,serif" font-size="14.00" fill="#000000">SingleMinutesRowService</text>
</g>
<!-- SingleMinutesRowService&#45;&gt;AppModule -->
<g id="edge3" class="edge">
<title>SingleMinutesRowService&#45;&gt;AppModule</title>
<path fill="none" stroke="#000000" d="M1235,-122.1061C1235,-141.3391 1235,-169 1235,-169 1235,-169 814.8869,-169 814.8869,-169"/>
<polygon fill="#000000" stroke="#000000" points="814.8869,-165.5001 804.8869,-169 814.8868,-172.5001 814.8869,-165.5001"/>
</g>
<!-- FiveMinutesRowService -->
<g id="node5" class="node">
<title>FiveMinutesRowService</title>
<ellipse fill="#fdb462" stroke="#000000" cx="995" cy="-104" rx="107.0995" ry="18"/>
<text text-anchor="middle" x="995" y="-99.8" font-family="Times,serif" font-size="14.00" fill="#000000">FiveMinutesRowService</text>
</g>
<!-- FiveMinutesRowService&#45;&gt;AppModule -->
<g id="edge4" class="edge">
<title>FiveMinutesRowService&#45;&gt;AppModule</title>
<path fill="none" stroke="#000000" d="M995,-122.027C995,-138.3976 995,-160 995,-160 995,-160 814.7449,-160 814.7449,-160"/>
<polygon fill="#000000" stroke="#000000" points="814.7449,-156.5001 804.7449,-160 814.7449,-163.5001 814.7449,-156.5001"/>
</g>
<!-- SingleHoursRowService -->
<g id="node6" class="node">
<title>SingleHoursRowService</title>
<ellipse fill="#fdb462" stroke="#000000" cx="763" cy="-104" rx="106.5198" ry="18"/>
<text text-anchor="middle" x="763" y="-99.8" font-family="Times,serif" font-size="14.00" fill="#000000">SingleHoursRowService</text>
</g>
<!-- SingleHoursRowService&#45;&gt;AppModule -->
<g id="edge5" class="edge">
<title>SingleHoursRowService&#45;&gt;AppModule</title>
<path fill="none" stroke="#000000" d="M763,-122.1061C763,-122.1061 763,-140.991 763,-140.991"/>
<polygon fill="#000000" stroke="#000000" points="759.5001,-140.9909 763,-150.991 766.5001,-140.991 759.5001,-140.9909"/>
</g>
<!-- FiveHoursRowService -->
<g id="node7" class="node">
<title>FiveHoursRowService</title>
<ellipse fill="#fdb462" stroke="#000000" cx="539" cy="-104" rx="98.9955" ry="18"/>
<text text-anchor="middle" x="539" y="-99.8" font-family="Times,serif" font-size="14.00" fill="#000000">FiveHoursRowService</text>
</g>
<!-- FiveHoursRowService&#45;&gt;AppModule -->
<g id="edge6" class="edge">
<title>FiveHoursRowService&#45;&gt;AppModule</title>
<path fill="none" stroke="#000000" d="M539,-122.027C539,-138.3976 539,-160 539,-160 539,-160 711.1301,-160 711.1301,-160"/>
<polygon fill="#000000" stroke="#000000" points="711.1301,-163.5001 721.1301,-160 711.13,-156.5001 711.1301,-163.5001"/>
</g>
<!-- OneSecondRowService -->
<g id="node8" class="node">
<title>OneSecondRowService</title>
<ellipse fill="#fdb462" stroke="#000000" cx="319" cy="-104" rx="102.9918" ry="18"/>
<text text-anchor="middle" x="319" y="-99.8" font-family="Times,serif" font-size="14.00" fill="#000000">OneSecondRowService</text>
</g>
<!-- OneSecondRowService&#45;&gt;AppModule -->
<g id="edge7" class="edge">
<title>OneSecondRowService&#45;&gt;AppModule</title>
<path fill="none" stroke="#000000" d="M319,-122.1061C319,-141.3391 319,-169 319,-169 319,-169 711.2296,-169 711.2296,-169"/>
<polygon fill="#000000" stroke="#000000" points="711.2296,-172.5001 721.2296,-169 711.2295,-165.5001 711.2296,-172.5001"/>
</g>
<!-- BerlinClockService -->
<g id="node9" class="node">
<title>BerlinClockService</title>
<ellipse fill="#fdb462" stroke="#000000" cx="111" cy="-104" rx="87.3944" ry="18"/>
<text text-anchor="middle" x="111" y="-99.8" font-family="Times,serif" font-size="14.00" fill="#000000">BerlinClockService</text>
</g>
<!-- BerlinClockService&#45;&gt;AppModule -->
<g id="edge8" class="edge">
<title>BerlinClockService&#45;&gt;AppModule</title>
<path fill="none" stroke="#000000" d="M111,-122.2921C111,-144.2057 111,-178 111,-178 111,-178 711.2226,-178 711.2226,-178"/>
<polygon fill="#000000" stroke="#000000" points="711.2227,-181.5001 721.2226,-178 711.2226,-174.5001 711.2227,-181.5001"/>
</g>
</g>
</svg>
